#!OML:ASF G:\JayActor3\Patient Classification 1\Patient 1\Session 6\male.ASF
:FULLY-SPECIFIED
:DEGREES
1039
root 9.76655 15.8982 -0.432946 -16.3507 -66.672 16.0406
lowerback 1.94535 -2.32099 -5.0787
upperback -4.06602 -3.46138 -1.52456
thorax -5.1089 -1.571 1.47239
lowerneck -1.4647 8.87557 9.37291
upperneck 20.7431 12.1729 -5.53127
head 7.53984 5.98833 -2.44435
rclavicle -2.88238e-015 -1.64991e-014
rhumerus -34.9611 -14.7462 -77.1984
rradius 22.1595
rwrist 11.1231
rhand -8.01662 -7.66442
rfingers 7.12502
rthumb 17.8928 -36.8613
lclavicle -2.88238e-015 -1.64991e-014
lhumerus -41.8116 22.2524 71.8859
lradius 24.3339
lwrist 18.5214
lhand -9.67332 17.4607
lfingers 7.12502
lthumb 16.2982 46.7958
rfemur -21.8879 1.46616 9.40392
rtibia 52.6762
rfoot -27.8247 -11.4626
rtoes -5.55741
lfemur -2.58778 30.245 -27.5219
ltibia 25.7115
lfoot -19.096 -19.4854
ltoes 9.23813
1040
root 9.76858 15.9002 -0.433418 -16.227 -66.6581 15.9326
lowerback 1.97599 -2.31611 -5.04189
upperback -4.08086 -3.45381 -1.48755
thorax -5.14199 -1.56661 1.49168
lowerneck -1.45823 8.90999 9.42898
upperneck 20.6476 12.2433 -5.66915
head 7.52507 6.01746 -2.49193
rclavicle 1.71949e-014 7.7526e-015
rhumerus -34.9823 -14.7615 -77.115
rradius 22.2005
rwrist 11.0583
rhand -7.97776 -7.66951
rfingers 7.12502
rthumb 17.9302 -36.863
lclavicle 1.71949e-014 7.7526e-015
lhumerus -41.8599 22.3216 71.8778
lradius 24.3387
lwrist 18.4921
lhand -9.62709 17.4803
lfingers 7.12502
lthumb 16.3427 46.8117
rfemur -21.8907 1.43134 9.44114
rtibia 52.6306
rfoot -27.807 -11.4566
rtoes -5.54471
lfemur -2.62708 30.2146 -27.5038
ltibia 25.7123
lfoot -19.0875 -19.4781
ltoes 9.23509
1041
root 9.77073 15.9022 -0.434086 -16.0923 -66.645 15.8142
lowerback 2.01223 -2.31194 -5.00442
upperback -4.0964 -3.44737 -1.44801
thorax -5.17885 -1.56264 1.51358
lowerneck -1.45668 8.94136 9.47997
upperneck 20.5413 12.3094 -5.80899
head 7.50709 6.04422 -2.5396
rclavicle -1.27222e-014 -1.07344e-014
rhumerus -35.0021 -14.7867 -77.0219
rradius 22.245
rwrist 11.0077
rhand -7.93093 -7.68416
rfingers 7.12502
rthumb 17.9753 -36.8735
lclavicle -1.27222e-014 -1.07344e-014
lhumerus -41.9114 22.3992 71.8664
lradius 24.3477
lwrist 18.4581
lhand -9.5767 17.4933
lfingers 7.12502
lthumb 16.3912 46.8207
rfemur -21.8939 1.39481 9.48327
rtibia 52.5819
rfoot -27.7868 -11.4492
rtoes -5.52074
lfemur -2.6709 30.1752 -27.4844
ltibia 25.7146
lfoot -19.0863 -19.4562
ltoes 9.20928
1042
root 9.77292 15.9042 -0.434965 -15.9406 -66.6319 15.6759
lowerback 2.05687 -2.30899 -4.96348
upperback -4.11264 -3.44271 -1.40517
thorax -5.22112 -1.55944 1.53747
lowerneck -1.4605 8.96922 9.52493
upperneck 20.4284 12.3703 -5.94817
head 7.48713 6.06812 -2.58639
rclavicle 3.08862e-014 -7.15625e-015
rhumerus -35.0219 -14.8174 -76.9206
rradius 22.2927
rwrist 10.9685
rhand -7.88631 -7.70026
rfingers 7.12502
rthumb 18.0182 -36.8856
lclavicle 3.08862e-014 -7.15625e-015
lhumerus -41.9679 22.4729 71.8572
lradius 24.3647
lwrist 18.4279
lhand -9.52526 17.5044
lfingers 7.12502
lthumb 16.4408 46.8278
rfemur -21.8932 1.35452 9.53452
rtibia 52.5292
rfoot -27.7642 -11.4415
rtoes -5.50412
lfemur -2.71589 30.127 -27.4577
ltibia 25.7195
lfoot -19.0937 -19.4206
ltoes 9.15699
1043
root 9.77519 15.9063 -0.435978 -15.7757 -66.618 15.52
lowerback 2.11309 -2.30747 -4.91766
upperback -4.13004 -3.44034 -1.36042
thorax -5.27123 -1.5573 1.56137
lowerneck -1.47127 8.99328 9.56017
upperneck 20.3091 12.4249 -6.0826
head 7.46488 6.0887 -2.63045
rclavicle 2.127e-014 1.92821e-014
rhumerus -35.0441 -14.8547 -76.8125
rradius 22.3452
rwrist 10.9407
rhand -7.86152 -7.71432
rfingers 7.12502
rthumb 18.0421 -36.8975
lclavicle 2.127e-014 1.92821e-014
lhumerus -42.0292 22.5355 71.8528
lradius 24.3903
lwrist 18.4096
lhand -9.47625 17.512
lfingers 7.12502
lthumb 16.488 46.8314
rfemur -21.8859 1.30962 9.59333
rtibia 52.4716
rfoot -27.7392 -11.4289
rtoes -5.47614
lfemur -2.75983 30.0652 -27.4248
ltibia 25.7271
lfoot -19.1065 -19.3705
ltoes 9.093
1044
root 9.77742 15.9086 -0.437128 -15.6003 -66.6013 15.3509
lowerback 2.17553 -2.30845 -4.87045
upperback -4.14713 -3.4414 -1.31396
thorax -5.32437 -1.55679 1.58676
lowerneck -1.48786 9.01374 9.58666
upperneck 20.1839 12.4735 -6.21256
head 7.44042 6.10614 -2.67204
rclavicle 2.42517e-014 8.34896e-015
rhumerus -35.0653 -14.8871 -76.7033
rradius 22.4014
rwrist 10.9168
rhand -7.84942 -7.729
rfingers 7.12502
rthumb 18.0537 -36.9111
lclavicle 2.42517e-014 8.34896e-015
lhumerus -42.0934 22.572 71.8636
lradius 24.4309
lwrist 18.4217
lhand -9.43342 17.5192
lfingers 7.12502
lthumb 16.5292 46.8352
rfemur -21.8736 1.25734 9.65726
rtibia 52.4097
rfoot -27.7122 -11.4125
rtoes -5.45369
lfemur -2.8022 30.0043 -27.3854
ltibia 25.7355
lfoot -19.1231 -19.3193
ltoes 9.01216
